{"title":"JUST TEENS PORN AMATEUR TEEN SEX-SILVERDUST-{HKRG}","uid":6236280,"size":636113512,"categoryP":"porn","categoryS":"movie_clips","magnet":"?xt=urn:btih:bc2a9c7dd0658d630153dba48c1a25f1c1d67fa2&amp;dn=JUST+TEENS+PORN+AMATEUR+TEEN+SEX-SILVERDUST-%7BHKRG%7D&amp;tr=udp%3A%2F%2Ftracker.openbittorrent.com%3A80&amp;tr=udp%3A%2F%2Fopen.demonii.com%3A1337&amp;tr=udp%3A%2F%2Ftracker.coppersurfer.tk%3A6969&amp;tr=udp%3A%2F%2Fexodus.desync.com%3A6969","seeders":1,"leechers":1,"uploader":"dodgerblue","files":6,"time":1299883252,"description":"JUST TEENS PORN AMATEUR TEEN SEX-SILVERDUST-{HKRG} &lt;a href=&quot;\nhttp://img3.immage.de/110376image10171406.jpg&quot; rel=&quot;nofollow&quot; target=&quot;_NEW&quot;&gt;\nhttp://img3.immage.de/110376image10171406.jpg&lt;/a&gt; &lt;a href=&quot;\nhttp://img1.immage.de/110391image10173078.jpg&quot; rel=&quot;nofollow&quot; target=&quot;_NEW&quot;&gt;\nhttp://img1.immage.de/110391image10173078.jpg&lt;/a&gt;\n\n\n[img]http://img3.immage.de/110376image10171406.jpg[/img]\n\n[img]http://img1.immage.de/110391image10173078.jpg[/img]\n &lt;a href=&quot;\nhttp://www.leetleech.org/images/97290487188333659391.jpg&quot; rel=&quot;nofollow&quot; target=&quot;_NEW&quot;&gt;\nhttp://www.leetleech.org/images/97290487188333659391.jpg&lt;/a&gt;\n    &lt;a href=&quot;\thttp://www.leetleech.org/images/06659581596630627597.png&quot; rel=&quot;nofollow&quot; target=&quot;_NEW&quot;&gt;\thttp://www.leetleech.org/images/06659581596630627597.png&lt;/a&gt;\n    &lt;a href=&quot;\thttp://www.leetleech.org/images/95638850939063339622.png&quot; rel=&quot;nofollow&quot; target=&quot;_NEW&quot;&gt;\thttp://www.leetleech.org/images/95638850939063339622.png&lt;/a&gt;\n    &lt;a href=&quot;\thttp://www.leetleech.org/images/42675321880577337227.png&quot; rel=&quot;nofollow&quot; target=&quot;_NEW&quot;&gt;\thttp://www.leetleech.org/images/42675321880577337227.png&lt;/a&gt;\n\n\nFormat                           : Windows Media\nFile size                        : 604 MiB\nDuration                         : 17mn 41s\nOverall bit rate mode            : Variable\nOverall bit rate                 : 4 773 Kbps\nMaximum Overall bit rate         : 6 282 Kbps\nEncoded date                     : UTC 2007-04-10 16:13:20.718\n\nVideo\nID                               : 2\nFormat                           : VC-1\nFormat profile                   : MP@HL\nCodec ID                         : WMV3\nCodec ID/Info                    : Windows Media Video 9\nCodec ID/Hint                    : WMV3\nDescription of the codec         : Windows Media Video 9 - Professional\nDuration                         : 17mn 41s\nBit rate mode                    : Variable\nBit rate                         : 4 500 Kbps\nWidth                            : 1 280 pixels\nHeight                           : 720 pixels\nDisplay aspect ratio             : 16:9\nFrame rate                       : 25.000 fps\nBit depth                        : 8 bits\nScan type                        : Progressive\nCompression mode                 : Lossy\nBits/(Pixel*Frame)               : 0.195\nStream size                      : 569 MiB (94%)\n\nAudio\nID                               : 1\nFormat                           : WMA\nFormat version                   : Version 2\nCodec ID                         : 161\nCodec ID/Info                    : Windows Media Audio\nDescription of the codec         : Windows Media Audio 9.2 - 256 kbps, 44 kHz, stereo 2-pass CBR\nDuration                         : 17mn 41s\nBit rate mode                    : Constant\nBit rate                         : 256 Kbps\nChannel(s)                       : 2 channels\nSampling rate                    : 44.1 KHz\nBit depth                        : 16 bits\nStream size                      : 32.4 MiB (5%)\nNJOI","torrent":{"xt":"urn:btih:bc2a9c7dd0658d630153dba48c1a25f1c1d67fa2","amp;dn":"JUST+TEENS+PORN+AMATEUR+TEEN+SEX-SILVERDUST-%7BHKRG%7D","amp;tr":["udp%3A%2F%2Ftracker.openbittorrent.com%3A80","udp%3A%2F%2Fopen.demonii.com%3A1337","udp%3A%2F%2Ftracker.coppersurfer.tk%3A6969","udp%3A%2F%2Fexodus.desync.com%3A6969"],"infoHash":"bc2a9c7dd0658d630153dba48c1a25f1c1d67fa2","infoHashBuffer":{"type":"Buffer","data":[188,42,156,125,208,101,141,99,1,83,219,164,140,26,37,241,193,214,127,162]},"announce":[],"urlList":[]}}